Coordinates
version=1
nRows=17
nColumns=40
inDegrees=yes

Units are S.I. units (second, meters, Newtons, ...)
Angles are in degrees.

endheader
time	pelvis_tilt	pelvis_list	pelvis_rotation	pelvis_tx	pelvis_ty	pelvis_tz	hip_flexion_r	hip_adduction_r	hip_rotation_r	knee_angle_r	knee_angle_r_beta	ankle_angle_r	subtalar_angle_r	mtp_angle_r	hip_flexion_l	hip_adduction_l	hip_rotation_l	knee_angle_l	knee_angle_l_beta	ankle_angle_l	subtalar_angle_l	mtp_angle_l	lumbar_extension	lumbar_bending	lumbar_rotation	arm_flex_r	arm_add_r	arm_rot_r	elbow_flex_r	pro_sup_r	wrist_flex_r	wrist_dev_r	arm_flex_l	arm_add_l	arm_rot_l	elbow_flex_l	pro_sup_l	wrist_flex_l	wrist_dev_l
      4.19000000	     -3.36960118	     -3.73434397	      0.29525455	      0.82108183	      0.93170506	      0.41033782	     29.92479716	     -4.88114732	     -5.70936127	     68.30569403	     68.30569403	      0.44643934	    -16.07773596	      0.26003170	     15.58497944	     -3.24755526	     -6.43434560	     22.17587940	     22.17587940	     12.11836760	    -14.25683838	      0.53141648	     -8.22403889	      4.52712601	      3.56871558	     21.59256216	    -10.48664795	     -1.06830516	     41.19352643	     45.72853180	      0.00000000	      0.00000000	     32.79040016	    -13.22799810	     12.75676501	     93.91886858	     47.53897691	      0.00000000	      0.00000000
      4.20221429	     -3.39918738	     -3.74129127	     -0.04348765	      0.82018180	      0.93212031	      0.41025223	     30.85753130	     -4.80034915	     -5.70618258	     66.73145407	     66.73145407	      0.83979332	    -16.05443415	      0.19048205	     14.84929429	     -3.23518617	     -6.59803802	     21.73686370	     21.73686370	     12.35187963	    -14.39425777	      0.52297773	     -8.40089476	      4.58119228	      3.92779835	     20.15562476	    -10.80637284	     -1.10917412	     39.71462434	     45.77887614	      0.00000000	      0.00000000	     34.67316273	    -13.16014645	     12.42457767	     95.93807870	     47.61858101	      0.00000000	      0.00000000
      4.21442857	     -3.47049799	     -3.78201784	     -0.37010619	      0.81929974	      0.93244014	      0.41017348	     31.70379461	     -4.66449332	     -5.76576967	     64.93129184	     64.93129184	      1.16169079	    -16.03818182	      0.16546933	     14.15555426	     -3.28788272	     -6.91072735	     21.28215180	     21.28215180	     12.54870574	    -14.27731690	      0.24513951	     -8.51521297	      4.69750009	      3.83217676	     19.43952036	    -10.74217307	     -1.43065753	     36.97230270	     45.89990243	      0.00000000	      0.00000000	     36.15627082	    -13.63364481	     12.01701996	     98.63893444	     47.73483860	      0.00000000	      0.00000000
      4.22664286	     -3.45838912	     -3.87668582	     -0.70025671	      0.81850727	      0.93290083	      0.41023881	     32.29149245	     -4.39619230	     -5.82052361	     62.84183252	     62.84183252	      1.48199779	    -15.99091368	      0.42853730	     13.38408311	     -3.40221746	     -7.19387191	     20.85064551	     20.85064551	     12.80713014	    -14.15625666	      0.14575228	     -8.75104920	      4.85370640	      3.97402811	     18.38013102	    -10.88505735	     -1.58089640	     35.25936277	     45.96980431	      0.00000000	      0.00000000	     37.87386136	    -13.64684208	     11.34559715	    100.48478430	     47.83648150	      0.00000000	      0.00000000
      4.23885714	     -3.63429139	     -3.95080143	     -0.96110202	      0.81758003	      0.93295485	      0.41025051	     32.98572965	     -4.22465822	     -6.03156417	     60.54188603	     60.54188603	      1.77588268	    -15.71299021	      0.66697387	     12.89634080	     -3.47936570	     -7.39424929	     20.51679119	     20.51679119	     13.08335133	    -14.06299419	      0.08098411	     -8.72571465	      5.02107873	      3.89182212	     17.24319726	    -11.01422825	     -1.62506818	     34.36109245	     46.00045041	      0.00000000	      0.00000000	     39.65586248	    -13.96833894	     10.72971818	    101.57376497	     47.90813810	      0.00000000	      0.00000000
      4.25107143	     -3.60679045	     -4.05114554	     -1.28745134	      0.81688620	      0.93339311	      0.41043259	     33.25585622	     -3.92483029	     -6.19771424	     57.84643487	     57.84643487	      2.11353139	    -15.42088608	      1.14114694	     12.06861268	     -3.62220239	     -7.84170201	     19.99938050	     19.99938050	     13.21192438	    -13.71698240	     -0.42820798	     -8.98898251	      5.18159079	      3.21407636	     17.97874474	    -10.54141045	     -2.31065818	     29.88308319	     46.23595140	      0.00000000	      0.00000000	     40.37540594	    -14.62210271	      9.33163909	    104.88637624	     48.12577371	      0.00000000	      0.00000000
      4.26328571	     -3.82395038	     -4.11964121	     -1.55005318	      0.81603403	      0.93334328	      0.41062789	     33.67877715	     -3.70886790	     -6.50559483	     54.88034588	     54.88034588	      2.38540679	    -14.87920695	      1.39275780	     11.60989683	     -3.69090549	     -8.02309665	     19.62388159	     19.62388159	     13.46777110	    -13.63028668	     -0.44659294	     -8.94441939	      5.31980648	      3.22341219	     16.98358114	    -10.77523479	     -2.34922788	     29.37034740	     46.25197374	      0.00000000	      0.00000000	     41.94850118	    -14.82193076	      8.81900212	    105.72785572	     48.18452166	      0.00000000	      0.00000000
      4.27550000	     -3.93520638	     -4.20483569	     -1.81851544	      0.81540084	      0.93346965	      0.41095916	     33.77014808	     -3.44744900	     -6.89988711	     51.51084740	     51.51084740	      2.66432942	    -14.18143019	      1.60480393	     10.99071207	     -3.79316126	     -8.29753966	     19.19449380	     19.19449380	     13.69443553	    -13.44952948	     -0.47262581	     -9.01631410	      5.45372764	      3.32204497	     16.14207286	    -11.11154704	     -2.38030913	     28.90279442	     46.26710736	      0.00000000	      0.00000000	     43.27048792	    -14.82895099	      8.37575631	    106.80234102	     48.24237203	      0.00000000	      0.00000000
      4.28771429	     -3.97251972	     -4.29037356	     -2.09607758	      0.81498108	      0.93369727	      0.41135326	     33.55167423	     -3.16349730	     -7.38566100	     47.71932769	     47.71932769	      2.88826074	    -13.20808980	      1.54869895	     10.21667478	     -3.89266910	     -8.65462329	     18.66346192	     18.66346192	     13.93258252	    -13.12230195	     -0.56817697	     -9.20820665	      5.57637303	      3.45966291	     15.39746521	    -11.46297744	     -2.37871935	     28.56681662	     46.27477738	      0.00000000	      0.00000000	     44.28089334	    -14.74397501	      7.87092592	    108.19673206	     48.31278280	      0.00000000	      0.00000000
      4.29992857	     -4.33849331	     -4.24140954	     -2.37735175	      0.81437906	      0.93323099	      0.41199287	     33.63672009	     -2.93682011	     -7.82448695	     43.77286096	     43.77286096	      3.08108862	    -12.16772872	      1.75305493	      9.92680599	     -3.87787894	     -8.97927724	     18.32992887	     18.32992887	     14.12995832	    -12.98144405	     -0.65627895	     -8.95356396	      5.51065353	      3.35684650	     14.71580231	    -11.58645243	     -2.36054285	     28.43422552	     46.27265213	      0.00000000	      0.00000000	     45.29151322	    -15.00716252	      7.43598188	    108.85282291	     48.35864417	      0.00000000	      0.00000000
      4.31214286	     -4.36207414	     -4.40923835	     -2.58543481	      0.81431108	      0.93330063	      0.41261053	     32.94781633	     -2.55401286	     -8.65297981	     39.28803593	     39.28803593	      3.28220391	    -10.52231083	      1.52504852	      9.10770141	     -4.06805495	     -9.23810089	     17.77917521	     17.77917521	     14.39721897	    -12.58983028	     -0.83394839	     -9.11599881	      5.71964966	      3.32315762	     14.10275817	    -11.93468271	     -2.28265505	     28.66266562	     46.25043705	      0.00000000	      0.00000000	     45.79533209	    -15.07876369	      6.93892910	    109.94186163	     48.41903786	      0.00000000	      0.00000000
      4.32435714	     -4.50703942	     -4.40363272	     -2.79905429	      0.81432693	      0.93297187	      0.41338475	     32.28772617	     -2.25592856	     -9.45212607	     34.68014029	     34.68014029	      3.33685335	     -8.79194699	      1.35931512	      8.47596136	     -4.08823948	     -9.57836670	     17.33498727	     17.33498727	     14.60157873	    -12.29664651	     -1.05798152	     -9.05599627	      5.73088832	      3.17523346	     13.48283528	    -12.17641721	     -2.14088206	     29.15468877	     46.21146128	      0.00000000	      0.00000000	     46.16361281	    -15.26898098	      6.44562487	    110.76131753	     48.47665422	      0.00000000	      0.00000000
      4.33657143	     -4.72130395	     -4.36450609	     -3.01527219	      0.81457280	      0.93228559	      0.41433718	     31.58216998	     -1.89478877	    -10.18777400	     30.03756027	     30.03756027	      3.41096912	     -6.96701675	      1.48179104	      7.91464254	     -4.07696863	     -9.83518734	     16.91869355	     16.91869355	     14.86349246	    -12.03630311	     -1.31014348	     -8.83588100	      5.69297925	      3.04160510	     12.90326323	    -12.32469664	     -1.97739151	     29.74307273	     46.16735060	      0.00000000	      0.00000000	     46.44526369	    -15.48077067	      6.05534185	    111.30801141	     48.52018662	      0.00000000	      0.00000000
      4.34878571	     -4.84636540	     -4.30383253	     -3.19935514	      0.81508111	      0.93152993	      0.41539953	     30.66418371	     -1.52554965	    -11.03880071	     25.45133067	     25.45133067	      3.41071699	     -4.89837207	      1.83648621	      7.24750959	     -4.04442592	    -10.14129015	     16.51070256	     16.51070256	     15.11927392	    -11.75126836	     -1.60350304	     -8.71541361	      5.61674055	      2.90820774	     12.31605496	    -12.47446935	     -1.76670371	     30.57617216	     46.10954181	      0.00000000	      0.00000000	     46.49312190	    -15.67263404	      5.71022574	    111.71649028	     48.55699372	      0.00000000	      0.00000000
      4.36100000	     -4.84382289	     -4.13901921	     -3.36735118	      0.81595866	      0.93055910	      0.41650797	     29.65168807	     -1.30356483	    -12.07538637	     21.31592525	     21.31592525	      3.43301640	     -2.44819650	      2.14680254	      6.39417878	     -3.91146617	    -10.60097209	     16.03780555	     16.03780555	     15.17592869	    -11.32504164	     -2.70964343	     -8.79481873	      5.43628884	      3.13696334	      9.93716990	    -13.71854993	      1.37456153	     36.25029175	     45.64428257	      0.00000000	      0.00000000	     46.50724707	    -15.47783324	      5.33419198	    112.06324748	     48.64927223	      0.00000000	      0.00000000
      4.37321429	     -4.88666420	     -3.99149797	     -3.51464738	      0.81705703	      0.92937776	      0.41780867	     28.78795250	     -1.03974368	    -13.09238211	     17.80095650	     17.80095650	      3.84476708	     -0.01955821	      3.98884527	      5.65277690	     -3.79826763	    -10.90523969	     15.73268185	     15.73268185	     15.52239932	    -11.01080738	     -3.05727571	     -8.63674373	      5.26229248	      3.04060499	      9.41528871	    -13.92708447	      2.10912632	     37.31140877	     45.56117781	      0.00000000	      0.00000000	     46.20738303	    -15.63428486	      5.16686404	    112.00749294	     48.68356580	      0.00000000	      0.00000000
      4.38542857	     -4.91855529	     -3.89037101	     -3.62403132	      0.81833433	      0.92806457	      0.41924932	     28.06236406	     -0.72854962	    -13.93322424	     15.03448435	     15.03448435	      4.45218084	      1.88263610	      6.77691843	      4.92285551	     -3.74044316	    -11.12393984	     15.49195825	     15.49195825	     15.92440104	    -10.74432190	     -3.37202113	     -8.48053293	      5.13163865	      3.02897817	      8.62066619	    -14.26480485	      2.89455884	     39.25577420	     45.44595238	      0.00000000	      0.00000000	     45.81917560	    -15.67348990	      5.05113949	    111.79140395	     48.72046596	      0.00000000	      0.00000000
